<?xml version="1.0" encoding="utf-8"?>
<!-- Generator: Adobe Illustrator 28.0.0, SVG Export Plug-In . SVG Version: 6.00 Build 0)  -->
<svg version="1.1" id="Lager_1" xmlns="http://www.w3.org/2000/svg" xmlns:xlink="http://www.w3.org/1999/xlink" x="0px" y="0px"
	 viewBox="0 0 175 70" style="enable-background:new 0 0 175 70;" xml:space="preserve">
<style type="text/css">
	.st0{opacity:0.99;}
	.st1{fill:#FFFDFF;stroke:#053F00;stroke-miterlimit:10;}
	.st2{fill:#BBC7A4;stroke:#053F00;stroke-miterlimit:10;}
</style>
<g class="st0">
	<path class="st1" d="M18.44,6.42v36.74h-4.75V6.42H18.44z"/>
	<path class="st1" d="M28.34,23.92c0-2.73-0.05-4.96-0.22-7.14h4.2l0.22,4.25h0.16c1.47-2.51,3.93-4.85,8.3-4.85
		c3.6,0,6.33,2.18,7.48,5.29h0.11c0.82-1.47,1.86-2.62,2.95-3.43c1.58-1.2,3.33-1.85,5.84-1.85c3.49,0,8.68,2.29,8.68,11.45v15.54
		h-4.69V28.23c0-5.07-1.85-8.12-5.73-8.12c-2.73,0-4.86,2.02-5.68,4.36c-0.22,0.65-0.38,1.53-0.38,2.4v16.3h-4.69V27.35
		c0-4.2-1.86-7.25-5.51-7.25c-3,0-5.18,2.4-5.95,4.8c-0.27,0.71-0.38,1.53-0.38,2.34v15.92h-4.69V23.92z"/>
	<path class="st2" d="M87.8,35.71l-0.38-3.33h-0.16c-1.47,2.07-4.31,3.92-8.08,3.92c-5.35,0-8.08-3.76-8.08-7.58
		c0-6.38,5.68-9.87,15.88-9.81v-0.55c0-2.18-0.6-6.11-6-6.11c-2.46,0-5.02,0.76-6.88,1.96l-1.09-3.16c2.18-1.42,5.35-2.34,8.68-2.34
		c8.08,0,10.04,5.51,10.04,10.79v9.87c0,2.29,0.11,4.52,0.44,6.32H87.8z M87.09,22.25c-5.24-0.11-11.19,0.82-11.19,5.94
		c0,3.11,2.07,4.58,4.53,4.58c3.44,0,5.62-2.18,6.38-4.42c0.16-0.49,0.27-1.04,0.27-1.53V22.25z"/>
	<path class="st1" d="M122.88,16.78c-0.11,1.91-0.22,4.03-0.22,7.25v15.32c0,6.05-1.68,14.12-4,16.66
		c-2.79,3.05-7.86,2.89-11.03,2.45c-3.14-0.43-7.83-2.34-9.96-3.76l2.25-3.33c1.75,1.09,5.16,2.49,8.34,3.26
		c6.14,1.5,11.32-5.94,9.71-14.54v-1.46h-0.11c-1.47,2.45-4.31,4.42-8.4,4.42c-6.55,0-11.24-5.56-11.24-12.86
		c0-8.94,5.84-14.01,11.9-14.01c4.58,0,7.09,2.4,8.24,4.58h0.11l0.22-3.98H122.88z M117.91,27.19c0-0.82-0.05-1.53-0.27-2.18
		c-0.87-2.78-3.22-5.07-6.71-5.07c-4.58,0-7.86,3.87-7.86,9.98c0,5.18,2.62,9.49,7.8,9.49c2.95,0,5.62-1.85,6.66-4.91
		c0.27-0.82,0.38-1.75,0.38-2.56V27.19z"/>
	<path class="st1" d="M133.35,30.84c0.11,6.49,4.26,9.16,9.06,9.16c3.44,0,5.51-0.6,7.31-1.36l0.82,3.43
		c-1.69,0.76-4.58,1.64-8.79,1.64c-8.13,0-12.99-5.34-12.99-13.3c0-7.96,4.69-14.23,12.39-14.23c8.62,0,10.92,7.58,10.92,12.43
		c0,0.98-0.11,1.74-0.16,2.24H133.35z M147.44,27.41c0.06-3.05-1.26-7.79-6.66-7.79c-4.86,0-6.99,4.47-7.37,7.79H147.44z"/>
	<path class="st1" d="M3.35,45.84c1.39,0.91,156.27,1.58,158.4,0.56c3.94-1.88,3.06-8.49,2.9-10.02c-0.24-2.23-1.34-3.48-4.82-4.76
		c-4.66-1.66-6.86-4.23-6.86-7.33c0-4.17,3.37-7.6,8.95-7.6c2.62,0,7.47,1.68,8.92,2.53v12.42c-1.02-0.64-6.62-11.42-9.03-11.42
		c-2.79,0-4.34,1.61-4.34,3.53c0,2.14,1.55,3.1,4.93,4.39c4.5,1.71,6.24,4,6.8,7.81c0.67,4.53,0.45,14.46-6.44,14.48
		c-2.84,0.01-157.58-0.05-159.41-1.12V45.84z"/>
</g>
<g>
</g>
<g>
</g>
<g>
</g>
<g>
</g>
<g>
</g>
<g>
</g>
</svg>
