<?xml version="1.0" encoding="utf-8"?>
<!-- Generator: Adobe Illustrator 28.0.0, SVG Export Plug-In . SVG Version: 6.00 Build 0)  -->
<svg version="1.1" id="Lager_1" xmlns="http://www.w3.org/2000/svg" xmlns:xlink="http://www.w3.org/1999/xlink" x="0px" y="0px"
	 viewBox="0 0 175 70" style="enable-background:new 0 0 175 70;" xml:space="preserve">
<style type="text/css">
	.st0{fill:#003F08;stroke:#1D1D1B;stroke-miterlimit:10;}
</style>
<g>
	<path class="st0" d="M75.03,42.37l2.59-0.69c1.29-0.21,2.02,0.01,2.19,0.65c0.11,0.41-0.29,0.74-1.21,0.99l-1.86,0.38l-2.64,0.74
		l-3.8,8.84c-2.59,5.89-4.1,8.89-4.51,9c-0.37,0.1-0.77-0.08-1.23-0.54c-0.41-0.39-0.67-0.78-0.78-1.17
		c-0.16-0.58,1.93-5.6,6.27-15.06l-2.2,0.59c-3.07,0.84-7.59,2.24-13.57,4.19l-7.36,10.71l-2.81,4.3c-1.53,2.27-2.51,3.46-2.95,3.58
		c-0.53,0.14-0.86-0.06-1.01-0.61c-0.18-0.68,1.84-4.01,6.07-10l5.03-7.11c-8.53,2.73-12.87,4.36-13.04,4.88l0.01,0.03
		c0.1,0.36,1.49,0.18,4.18-0.54l3.77-1.07c0.5-0.15,0.79-0.11,0.85,0.13c0.14,0.53-1.84,1.34-5.94,2.44
		c-3.5,0.94-5.37,0.96-5.61,0.08c-0.3-1.13,0.53-2.18,2.49-3.15c0.55-0.29,1.96-0.82,4.24-1.59l10.82-3.69
		c3.46-4.87,8.53-11.34,15.23-19.41c8.53-10.26,13.81-15.67,15.84-16.21c1.02-0.27,1.7,0.25,2.05,1.57c0.3,1.11-0.44,3.67-2.21,7.68
		L75.03,42.37z M70.99,43.45l8.92-19.63l1.65-3.66c0.69-1.62,1.12-2.83,1.26-3.64l0.01-0.12c-0.06-0.21-0.18-0.29-0.37-0.23
		C81.59,16.4,77,21.67,68.71,31.97L56.28,47.67L70.99,43.45z"/>
	<path class="st0" d="M123.52,27.07l2.74-0.7c1.44-0.27,2.25-0.08,2.42,0.56c0.09,0.32-0.12,0.55-0.63,0.68
		c-2.46,0.66-4.32,1.22-5.57,1.67l-7.41,16.15l-0.97,2.38c-0.54,1.15-1.06,1.8-1.55,1.93c-0.34,0.09-0.71,0.02-1.11-0.22
		c-0.4-0.24-0.64-0.52-0.73-0.86c-0.16-0.6,0.93-3.62,3.27-9.05l4.08-9.08L103.67,35c-3.9,7.08-6.6,11.75-8.1,14.04
		c-4.25,6.43-7.97,10.06-11.15,10.92c-1.41,0.38-2.7,0.25-3.86-0.39c-1.16-0.64-1.93-1.66-2.31-3.07c-0.9-3.37,0.35-7.27,3.77-11.71
		c3.41-4.43,9.55-7.99,18.4-10.66c8.61-16.31,12.85-24.81,12.73-25.5l-0.21-0.12c-1.29,0.39-3.73,2.5-7.32,6.35l-5.36,5.76
		c-0.25,0.07-0.4-0.02-0.47-0.27c-0.23-0.87,1.86-3.47,6.26-7.81c4.41-4.34,7.3-6.69,8.67-7.06c0.49-0.13,1.03-0.07,1.62,0.17
		c0.59,0.25,0.95,0.6,1.07,1.07c0.18,0.68-0.78,3.04-2.88,7.1l-9.85,19.01l14.48-4.58c8.07-16.59,12.55-25,13.43-25.24
		c0.8-0.21,1.29,0.01,1.46,0.67c0.13,0.49-0.28,1.68-1.22,3.57C129.29,14.36,126.18,20.97,123.52,27.07z M99.37,36.21
		c-4.4,1.32-7.81,2.86-10.23,4.62c-2.77,2-5.13,4.86-7.08,8.58c-1.69,3.26-2.32,5.7-1.88,7.31c0.38,1.43,1.41,1.92,3.09,1.47
		c1.07-0.29,2.25-1.11,3.54-2.46c1.47-1.52,3.69-4.64,6.66-9.35C96.19,42.11,98.15,38.71,99.37,36.21z"/>
</g>
<g>
</g>
<g>
</g>
<g>
</g>
<g>
</g>
<g>
</g>
<g>
</g>
</svg>
